inDegrees=no
num_controls=7
num_derivatives=13
num_iterations=120
num_multipliers=7
num_parameters=0
num_slacks=7
num_states=26
objective=0.443802
objective_accelerations=0.058607
objective_balance=0.003759
objective_effort=0.024073
objective_height=0.351885
objective_ligament=0.005479
solver_duration=1957.845747
status=Solve_Succeeded
success=true
DataType=double
version=3
OpenSimVersion=4.5
endheader
time	/jointset/ground_pelvis/pelvis_tilt/value	/jointset/ground_pelvis/pelvis_tx/value	/jointset/ground_pelvis/pelvis_ty/value	/jointset/hip_l/hip_flexion_l/value	/jointset/hip_l/hip_adduction_l/value	/jointset/hip_l/hip_rotation_l/value	/jointset/back/lumbar_extension/value	/jointset/patellofemoral_l/patellar_flexion_l/value	/jointset/knee_l/knee_flexion_l/value	/jointset/knee_l/knee_adduction_l/value	/jointset/knee_l/knee_rotation_l/value	/jointset/ankle_l/ankle_angle_l/value	/jointset/subtalar_l/subtalar_angle_l/value	/jointset/ground_pelvis/pelvis_tilt/speed	/jointset/ground_pelvis/pelvis_tx/speed	/jointset/ground_pelvis/pelvis_ty/speed	/jointset/hip_l/hip_flexion_l/speed	/jointset/hip_l/hip_adduction_l/speed	/jointset/hip_l/hip_rotation_l/speed	/jointset/back/lumbar_extension/speed	/jointset/patellofemoral_l/patellar_flexion_l/speed	/jointset/knee_l/knee_flexion_l/speed	/jointset/knee_l/knee_adduction_l/speed	/jointset/knee_l/knee_rotation_l/speed	/jointset/ankle_l/ankle_angle_l/speed	/jointset/subtalar_l/subtalar_angle_l/speed	/forceset/tau_hip_flexion_l	/forceset/tau_hip_adduction_l	/forceset/tau_hip_rotation_l	/forceset/tau_knee_flexion_l	/forceset/tau_ankle_angle_l	/forceset/tau_subtalar_angle_l	/forceset/tau_lumbar_extension	lambda_cid13_p0	lambda_cid13_p1	lambda_cid13_p2	lambda_cid13_p3	lambda_cid13_p4	lambda_cid13_p5	lambda_cid14_p0	/jointset/ground_pelvis/pelvis_tilt/accel	/jointset/ground_pelvis/pelvis_tx/accel	/jointset/ground_pelvis/pelvis_ty/accel	/jointset/hip_l/hip_flexion_l/accel	/jointset/hip_l/hip_adduction_l/accel	/jointset/hip_l/hip_rotation_l/accel	/jointset/back/lumbar_extension/accel	/jointset/patellofemoral_l/patellar_flexion_l/accel	/jointset/knee_l/knee_flexion_l/accel	/jointset/knee_l/knee_adduction_l/accel	/jointset/knee_l/knee_rotation_l/accel	/jointset/ankle_l/ankle_angle_l/accel	/jointset/subtalar_l/subtalar_angle_l/accel	gamma_cid13_p0	gamma_cid13_p1	gamma_cid13_p2	gamma_cid13_p3	gamma_cid13_p4	gamma_cid13_p5	gamma_cid14_p0
1.5	-0.3899777775449554	-0.03239237559725053	0.7562591695098279	1.14553029663479	-0.4359842147555947	-0.2083664891142669	-0.2273723117919725	0.8091730396561386	0.8091730396560708	-0.1337135132377487	-0.1467688770143835	0.1153272090696122	-0.02768018623549834	0.7305438793585349	0.2953201911199494	0.5542690201236617	-2.563587891204163	0.2069581546485024	-0.7317490329127726	0.3092791106065036	-2.02182763657795	-2.021827636578341	-0.123932032865388	0.1334297113847872	-0.3555413586113572	0.05828250351777581	-0.1865500765911687	0.03273922699380521	-0.007572885874438284	-0.1967647022775511	0.04511454256880477	0.04223666742680154	0.1764510673047765	-17.75757609850933	-18.03047237208926	5.732692475268863	-7.266812640656467	-519.796950079588	-57.7407241504001	-24.78200256358958	0.7495800649158731	0.7354391351079083	-0.5256988693464228	-1.369432541727128	0.7445805349121404	-0.1885382194132577	1.521254506446649	-1.356269990183663	-1.35626999018348	0.1390523198555394	0.2348305274792522	-0.5363453607462703	0.5288299224185253	5.384535973310275e-07	4.789016429497395e-07	-3.098505550418026e-06	-1.281027043523006e-07	7.64190948266899e-07	-2.127586432713866e-07	5.049431354774442e-07
1.51	-0.3826348995401435	-0.02940263699468494	0.7617744628634482	1.119827670929603	-0.4338790129454982	-0.2156921605863204	-0.2242047237914022	0.7888894437544787	0.7888894437543812	-0.1349490421591809	-0.1454243059855813	0.1117452753212604	-0.02707274508003236	0.7379259694473846	0.3025936586659061	0.5486707448314425	-2.576584574681179	0.2140554760656026	-0.7332525365058209	0.3242159936648317	-2.034600845919053	-2.034600845919738	-0.1231956647016549	0.1354883134430372	-0.3607682757965628	0.0632079135259981	-0.1802338581853017	0.0320203585318867	-0.007223350646179687	-0.1939292086088416	0.04487738625481685	0.04142718099117948	0.1713773544237783	-17.6028386262609	-17.72106255921833	5.70056193040942	-7.129777101560426	-515.6089653642823	-57.91644516947385	-25.69977506251073	0.7166821113635969	0.7182542510500655	-0.594611605965883	-1.211854787490856	0.6883134093418239	-0.1109862899867581	1.476530829114189	-1.194323285938884	-1.194323285983028	0.03781462872535512	0.1916115973608639	-0.5042604539188171	0.4746923489801273	4.449420849510711e-07	1.012977949529877e-06	-2.037404916668189e-06	6.962120473636363e-08	6.430160882661415e-07	-6.486533182448708e-08	4.408126119310079e-07
1.52	-0.375221368908345	-0.02634117297931767	0.7672302295147849	1.094005664682285	-0.4317036368283844	-0.2230288130664516	-0.2208884418355312	0.768486820383433	0.7684868203833064	-0.1361778302861519	-0.1440591016257292	0.1081133932897543	-0.02641599066269296	0.744674404755999	0.309665273680285	0.5423636796669734	-2.587463999630273	0.2209930160520183	-0.7339452345283149	0.3390179016666923	-2.045633130454764	-2.045633130455743	-0.1225838739741958	0.1375563775958073	-0.3655310152422133	0.06814515589246241	-0.1739176397794365	0.0313014900699669	-0.006873815417882178	-0.1910937149401354	0.04464022994082841	0.04061769455555573	0.1663036415427789	-17.45198895237645	-17.41412787384425	5.672431873026284	-7.018418767363769	-511.4924579454171	-58.14167780011025	-26.61715640136975	0.6228491088688251	0.6950686287923514	-0.6674568437964076	-0.9459808361427274	0.7126242487752371	-0.02637710530236432	1.494259495153147	-1.00808502910515	-1.008085029105074	0.1141368326007455	0.2367229463832854	-0.4435098128352614	0.5311963940669308	4.057721320277596e-07	1.301149166616833e-06	-1.535976528598148e-06	1.667446060410694e-07	6.038340422308519e-07	3.827724714872301e-08	4.125668926780823e-07
1.53	-0.3677435854831236	-0.02321022350225563	0.772619459425659	1.068085531211418	-0.4294597116958925	-0.2303687595479245	-0.2174252478740258	0.747982394931878	0.7479823949317539	-0.1374009562949599	-0.1426733207180674	0.104435921940645	-0.02570997246488301	0.7507631341614951	0.3164678468218842	0.5353690659541421	-2.596178100243677	0.2277691164842263	-0.7339590905668273	0.3535621626435819	-2.054960857158101	-2.054960857159331	-0.1220186840537274	0.1395773806630441	-0.3699056437821824	0.0730558565688405	-0.1675717691192443	0.03040718853833716	-0.006507800951549268	-0.1880433362670155	0.04372051721414372	0.03980592390310123	0.1611022251331843	-17.52976752707414	-17.06524523408412	5.636556732255676	-6.540280295830399	-507.4148194323059	-58.40584953151139	-27.53401454066637	0.5840354578042274	0.6643657708036199	-0.7323136317413884	-0.7764025483128949	0.6566972340613824	0.02424318128460651	1.425700200328983	-0.8515366340700623	-0.8515366341078928	0.0312706149330164	0.1810528504691908	-0.4257604782669885	0.4705940720464489	4.243400860271326e-07	1.328046226117287e-06	-1.629199901562885e-06	1.569799678253205e-07	6.517693610338711e-07	9.387217286863856e-08	4.224487779870114e-07
